<?xml version="1.0" encoding="UTF-8"?>
<svg id="Ebene_1" xmlns="http://www.w3.org/2000/svg" viewBox="0 0 150.9 178.76">
  <defs>
    <style>
      .cls-1, .cls-2 {
        fill: #fff;
      }

      .cls-3, .cls-2 {
        isolation: isolate;
      }

      .cls-2 {
        font-family: SegoeUI-Semibold, 'Segoe UI';
        font-size: 140px;
        font-weight: 600;
      }
    </style>
  </defs>
  <path id="question-solid" class="cls-1" d="M98.73,47.47c-.28-8.22,6.15-15.12,14.37-15.41l7.45-.26c8.22-.28,15.12,6.15,15.41,14.37l.03.84c.18,5.07-2.23,9.87-6.4,12.76l-9.6,6.65c-5.73,3.97-9.04,10.58-8.8,17.55v.33c.15,4.11,3.6,7.33,7.72,7.19,4.11-.14,7.33-3.59,7.19-7.7h0s-.01-.33-.01-.33c-.06-1.9.84-3.7,2.4-4.79l9.6-6.65c8.33-5.78,13.15-15.4,12.81-25.54l-.03-.84c-.57-16.45-14.37-29.32-30.82-28.74h0s-7.45.26-7.45.26c-16.45.59-29.31,14.4-28.74,30.85.14,4.11,3.6,7.33,7.71,7.18,4.11-.14,7.33-3.59,7.18-7.7ZM119.95,121.28c5.14-.18,9.16-4.49,8.98-9.63-.18-5.14-4.49-9.16-9.63-8.98s-9.16,4.49-8.98,9.63h0c.18,5.14,4.49,9.16,9.63,8.98Z"/>
  <g id="_5" class="cls-3">
    <text class="cls-2" transform="translate(0 119.01)"><tspan x="0" y="0">5</tspan></text>
  </g>
</svg>