<?xml version="1.0" encoding="UTF-8"?>
<svg xmlns="http://www.w3.org/2000/svg" version="1.1" viewBox="0 0 200 200">
  <defs>
    <style>
      .cls-1 {
        fill: #e52421;
        stroke: #1d1d1b;
        stroke-miterlimit: 10;
      }

      .cls-1, .cls-2, .cls-3 {
        display: none;
      }

      .cls-4, .cls-2, .cls-5 {
        fill: #fff;
      }

      .cls-6, .cls-5 {
        isolation: isolate;
      }

      .cls-5 {
        font-family: SegoeUI-Semibold, 'Segoe UI';
        font-size: 140px;
        font-weight: 600;
      }
    </style>
  </defs>
  <!-- Generator: Adobe Illustrator 28.7.1, SVG Export Plug-In . SVG Version: 1.2.0 Build 142)  -->
  <g>
    <g id="Ebene_1">
      <rect class="cls-1" x="-.32" y="-1.22" width="200" height="201.39"/>
      <g class="cls-3">
        <path id="question-solid" class="cls-4" d="M120.39,67.18c-.28-8.22,6.15-15.12,14.37-15.41l7.45-.26c8.22-.28,15.12,6.15,15.41,14.37l.03.84c.18,5.07-2.23,9.87-6.4,12.76l-9.6,6.65c-5.73,3.97-9.04,10.58-8.8,17.55v.33c.15,4.11,3.6,7.33,7.72,7.19,4.11-.14,7.33-3.59,7.19-7.7h0s-.01-.33-.01-.33c-.06-1.9.84-3.7,2.4-4.79l9.6-6.65c8.33-5.78,13.15-15.4,12.81-25.54l-.03-.84c-.57-16.45-14.37-29.32-30.82-28.74h0s-7.45.26-7.45.26c-16.45.59-29.31,14.4-28.74,30.85.14,4.11,3.6,7.33,7.71,7.18,4.11-.14,7.33-3.59,7.18-7.7ZM141.6,140.99c5.14-.18,9.16-4.49,8.98-9.63-.18-5.14-4.49-9.16-9.63-8.98s-9.16,4.49-8.98,9.63h0c.18,5.14,4.49,9.16,9.63,8.98Z"/>
        <g id="_5" class="cls-6">
          <text class="cls-5" transform="translate(21.66 138.73)"><tspan x="0" y="0">5</tspan></text>
        </g>
      </g>
      <path id="clipboard-regular" class="cls-2" d="M122.19,45.21h8.73c7.71,0,13.96,6.25,13.96,13.96v69.81c0,7.71-6.25,13.96-13.96,13.96h-55.85c-7.71,0-13.96-6.25-13.96-13.96V59.17c0-7.71,6.25-13.96,13.96-13.96h10.82c1.93-9.45,11.15-15.54,20.6-13.61,6.85,1.4,12.21,6.76,13.61,13.61h2.09ZM75.06,55.68c-1.93,0-3.48,1.57-3.49,3.49v69.81c0,1.93,1.57,3.48,3.49,3.49h55.85c1.93,0,3.48-1.57,3.49-3.49V59.17c0-1.93-1.57-3.48-3.49-3.49h-3.49v5.24c0,2.88-2.33,5.23-5.21,5.24,0,0-.02,0-.03,0h-38.4c-2.88,0-5.23-2.33-5.24-5.21,0,0,0-.02,0-.03v-5.24h-3.49ZM102.99,53.94c2.89,0,5.24-2.34,5.24-5.24s-2.34-5.24-5.24-5.24-5.24,2.34-5.24,5.24,2.34,5.24,5.24,5.24Z"/>
      <path id="bullseye-solid" class="cls-2" d="M143.35,89.53c0-23.35-18.93-42.27-42.27-42.27s-42.27,18.93-42.27,42.27,18.93,42.27,42.27,42.27,42.27-18.93,42.27-42.27ZM44.72,89.53c0-31.13,25.23-56.36,56.36-56.36s56.36,25.23,56.36,56.36-25.23,56.36-56.36,56.36-56.36-25.23-56.36-56.36ZM101.08,107.14c9.73,0,17.61-7.89,17.61-17.61,0-9.73-7.89-17.61-17.61-17.61-9.73,0-17.61,7.89-17.61,17.61h0c0,9.73,7.89,17.61,17.61,17.61ZM101.08,57.82c17.51,0,31.7,14.19,31.7,31.7s-14.19,31.7-31.7,31.7-31.7-14.19-31.7-31.7c0-17.51,14.19-31.7,31.7-31.7h0ZM94.04,89.53c0-3.89,3.15-7.05,7.05-7.05,3.89,0,7.05,3.15,7.05,7.05,0,3.89-3.15,7.05-7.05,7.05h0c-3.89,0-7.04-3.15-7.04-7.05Z"/>
      <path id="binoculars-solid" class="cls-4" d="M70.57,33.78h7.57c4.18,0,7.57,3.38,7.57,7.56,0,0,0,.01,0,.02v7.57h-22.72v-7.57c0-4.18,3.38-7.57,7.56-7.57,0,0,.01,0,.02,0ZM85.71,56.5v75.73c0,4.18-3.38,7.57-7.56,7.57h-30.31c-4.18,0-7.57-3.38-7.57-7.56,0,0,0-.01,0-.02v-13.99c0-8.19,2.22-16.23,6.43-23.26,3.24-5.39,5.33-11.41,6.11-17.65l1.77-14.2c.48-3.79,3.7-6.63,7.53-6.63h23.59ZM139.62,56.5c3.82,0,7.04,2.84,7.53,6.63l1.75,14.2c.78,6.25,2.86,12.26,6.11,17.65,4.21,7.03,6.43,15.07,6.43,23.26v13.99c0,4.18-3.38,7.57-7.56,7.57h-30.31c-4.18,0-7.57-3.38-7.57-7.56,0,0,0-.01,0-.02V56.5h23.62,0ZM116,41.36c0-4.18,3.38-7.57,7.56-7.57,0,0,.01,0,.02,0h7.57c4.18,0,7.57,3.38,7.57,7.56,0,0,0,.01,0,.02v7.57h-22.72v-7.57ZM108.43,56.5v37.86h-15.15v-37.86h15.15Z"/>
    </g>
  </g>
</svg>