<?xml version="1.0" encoding="UTF-8"?>
<svg xmlns="http://www.w3.org/2000/svg" version="1.1" viewBox="0 0 200 200">
  <defs>
    <style>
      .cls-1 {
        fill: #e52421;
        stroke: #1d1d1b;
        stroke-miterlimit: 10;
      }

      .cls-1, .cls-2, .cls-3 {
        display: none;
      }

      .cls-4, .cls-2, .cls-5 {
        fill: #fff;
      }

      .cls-6, .cls-5 {
        isolation: isolate;
      }

      .cls-5 {
        font-family: SegoeUI-Semibold, 'Segoe UI';
        font-size: 140px;
        font-weight: 600;
      }
    </style>
  </defs>
  <!-- Generator: Adobe Illustrator 28.7.1, SVG Export Plug-In . SVG Version: 1.2.0 Build 142)  -->
  <g>
    <g id="Ebene_1">
      <rect class="cls-1" x="-.32" y="-1.22" width="200" height="201.39"/>
      <g class="cls-3">
        <path id="question-solid" class="cls-4" d="M120.39,67.18c-.28-8.22,6.15-15.12,14.37-15.41l7.45-.26c8.22-.28,15.12,6.15,15.41,14.37l.03.84c.18,5.07-2.23,9.87-6.4,12.76l-9.6,6.65c-5.73,3.97-9.04,10.58-8.8,17.55v.33c.15,4.11,3.6,7.33,7.72,7.19,4.11-.14,7.33-3.59,7.19-7.7h0s-.01-.33-.01-.33c-.06-1.9.84-3.7,2.4-4.79l9.6-6.65c8.33-5.78,13.15-15.4,12.81-25.54l-.03-.84c-.57-16.45-14.37-29.32-30.82-28.74h0s-7.45.26-7.45.26c-16.45.59-29.31,14.4-28.74,30.85.14,4.11,3.6,7.33,7.71,7.18,4.11-.14,7.33-3.59,7.18-7.7ZM141.6,140.99c5.14-.18,9.16-4.49,8.98-9.63-.18-5.14-4.49-9.16-9.63-8.98s-9.16,4.49-8.98,9.63h0c.18,5.14,4.49,9.16,9.63,8.98Z"/>
        <g id="_5" class="cls-6">
          <text class="cls-5" transform="translate(21.66 138.73)"><tspan x="0" y="0">5</tspan></text>
        </g>
      </g>
      <path id="clipboard-regular" class="cls-2" d="M122.19,45.21h8.73c7.71,0,13.96,6.25,13.96,13.96v69.81c0,7.71-6.25,13.96-13.96,13.96h-55.85c-7.71,0-13.96-6.25-13.96-13.96V59.17c0-7.71,6.25-13.96,13.96-13.96h10.82c1.93-9.45,11.15-15.54,20.6-13.61,6.85,1.4,12.21,6.76,13.61,13.61h2.09ZM75.06,55.68c-1.93,0-3.48,1.57-3.49,3.49v69.81c0,1.93,1.57,3.48,3.49,3.49h55.85c1.93,0,3.48-1.57,3.49-3.49V59.17c0-1.93-1.57-3.48-3.49-3.49h-3.49v5.24c0,2.88-2.33,5.23-5.21,5.24,0,0-.02,0-.03,0h-38.4c-2.88,0-5.23-2.33-5.24-5.21,0,0,0-.02,0-.03v-5.24h-3.49ZM102.99,53.94c2.89,0,5.24-2.34,5.24-5.24s-2.34-5.24-5.24-5.24-5.24,2.34-5.24,5.24,2.34,5.24,5.24,5.24Z"/>
      <path id="bullseye-solid" class="cls-2" d="M143.35,89.53c0-23.35-18.93-42.27-42.27-42.27s-42.27,18.93-42.27,42.27,18.93,42.27,42.27,42.27,42.27-18.93,42.27-42.27ZM44.72,89.53c0-31.13,25.23-56.36,56.36-56.36s56.36,25.23,56.36,56.36-25.23,56.36-56.36,56.36-56.36-25.23-56.36-56.36ZM101.08,107.14c9.73,0,17.61-7.89,17.61-17.61,0-9.73-7.89-17.61-17.61-17.61-9.73,0-17.61,7.89-17.61,17.61h0c0,9.73,7.89,17.61,17.61,17.61ZM101.08,57.82c17.51,0,31.7,14.19,31.7,31.7s-14.19,31.7-31.7,31.7-31.7-14.19-31.7-31.7c0-17.51,14.19-31.7,31.7-31.7h0ZM94.04,89.53c0-3.89,3.15-7.05,7.05-7.05,3.89,0,7.05,3.15,7.05,7.05,0,3.89-3.15,7.05-7.05,7.05h0c-3.89,0-7.04-3.15-7.04-7.05Z"/>
      <path id="binoculars-solid" class="cls-2" d="M70.57,33.78h7.57c4.18,0,7.57,3.38,7.57,7.56,0,0,0,.01,0,.02v7.57h-22.72v-7.57c0-4.18,3.38-7.57,7.56-7.57,0,0,.01,0,.02,0ZM85.71,56.5v75.73c0,4.18-3.38,7.57-7.56,7.57h-30.31c-4.18,0-7.57-3.38-7.57-7.56,0,0,0-.01,0-.02v-13.99c0-8.19,2.22-16.23,6.43-23.26,3.24-5.39,5.33-11.41,6.11-17.65l1.77-14.2c.48-3.79,3.7-6.63,7.53-6.63h23.59ZM139.62,56.5c3.82,0,7.04,2.84,7.53,6.63l1.75,14.2c.78,6.25,2.86,12.26,6.11,17.65,4.21,7.03,6.43,15.07,6.43,23.26v13.99c0,4.18-3.38,7.57-7.56,7.57h-30.31c-4.18,0-7.57-3.38-7.57-7.56,0,0,0-.01,0-.02V56.5h23.62,0ZM116,41.36c0-4.18,3.38-7.57,7.56-7.57,0,0,.01,0,.02,0h7.57c4.18,0,7.57,3.38,7.57,7.56,0,0,0,.01,0,.02v7.57h-22.72v-7.57ZM108.43,56.5v37.86h-15.15v-37.86h15.15Z"/>
      <path id="person-rays-solid" class="cls-2" d="M91.91,43.38c0-5.45,4.42-9.87,9.87-9.87s9.87,4.42,9.87,9.87-4.42,9.87-9.87,9.87h0c-5.45,0-9.87-4.42-9.87-9.87ZM100.13,105.87v26.31c-.04,3.63-3.01,6.55-6.65,6.51-3.58-.04-6.47-2.93-6.51-6.51v-45.86l-5.88,9.76c-1.87,3.11-5.91,4.11-9.02,2.24s-4.11-5.91-2.24-9.02l11.98-19.94c3.57-5.94,9.99-9.58,16.92-9.58h6.1c6.93,0,13.35,3.64,16.92,9.58l11.98,19.94c1.87,3.11.87,7.15-2.24,9.02-3.11,1.87-7.15.87-9.02-2.24l-5.9-9.76v45.86c0,3.63-2.94,6.58-6.58,6.58s-6.58-2.94-6.58-6.58v-26.31h-3.29ZM50.59,34.96c1.94-1.91,5.05-1.91,6.99,0l16.44,16.44c1.95,1.9,2,5.01.11,6.97-1.9,1.95-5.01,2-6.97.11-.04-.03-.07-.07-.11-.11l-16.47-16.42c-1.91-1.94-1.91-5.05,0-6.99ZM145.97,34.96c1.95-1.9,5.07-1.85,6.97.11,1.85,1.91,1.85,4.95,0,6.86l-16.44,16.44c-1.95,1.9-5.07,1.85-6.97-.11-1.85-1.91-1.85-4.95,0-6.86l16.44-16.44ZM50.59,137.32c-1.92-1.91-1.93-5.02-.02-6.95,0,0,.01-.01.02-.02l16.44-16.45c1.9-1.95,5.01-2,6.97-.11,1.95,1.9,2,5.01.11,6.97-.03.04-.07.07-.11.11l-16.42,16.45c-1.91,1.92-5.02,1.93-6.95.02,0,0-.01-.01-.02-.02h-.02ZM145.97,137.32l-16.44-16.44c-1.9-1.95-1.85-5.07.11-6.97,1.91-1.85,4.95-1.85,6.86,0l16.44,16.44c1.9,1.95,1.85,5.07-.11,6.97-1.91,1.85-4.95,1.85-6.86,0h0Z"/>
      <path id="person-circle-question-solid" class="cls-2" d="M64.79,36.31c0-5.88,4.76-10.64,10.64-10.64s10.64,4.76,10.64,10.64-4.76,10.64-10.64,10.64c-5.88,0-10.64-4.76-10.65-10.64h0ZM73.66,103.71v28.38c0,3.92-3.18,7.1-7.1,7.1s-7.1-3.18-7.1-7.1v-49.47l-6.34,10.55c-2.02,3.36-6.38,4.44-9.74,2.42-3.36-2.02-4.44-6.38-2.42-9.74h0l12.93-21.51c3.85-6.41,10.77-10.33,18.25-10.33h6.59c7.47,0,14.4,3.92,18.25,10.33l9.95,16.56c-3.6,3.95-6.36,8.59-8.12,13.64-.43-.41-.79-.88-1.09-1.4l-6.34-10.53v49.47c0,3.92-3.18,7.1-7.1,7.1s-7.1-3.18-7.1-7.1h0v-28.38h-3.54ZM135.74,75.33c17.63,0,31.93,14.29,31.93,31.93s-14.29,31.93-31.93,31.93-31.93-14.29-31.93-31.93c0-17.63,14.29-31.93,31.93-31.93h0ZM135.74,128.54c2.94,0,5.32-2.38,5.32-5.32s-2.38-5.32-5.32-5.32-5.32,2.38-5.32,5.32,2.38,5.32,5.32,5.32c0,0,0,0,0,0ZM121.55,96.97v1.42c0,1.96,1.59,3.55,3.55,3.55s3.55-1.59,3.55-3.55v-1.42c0-1.18.95-2.13,2.13-2.13h8.98c1.7,0,3.09,1.37,3.09,3.07,0,1.15-.63,2.21-1.65,2.74l-7.1,3.72c-1.17.61-1.91,1.83-1.91,3.15v3.28c0,1.96,1.59,3.55,3.55,3.55s3.55-1.59,3.55-3.55v-1.13l5.21-2.73c4.97-2.62,6.88-8.77,4.26-13.75-1.76-3.34-5.23-5.43-9-5.43h-8.98c-5.09,0-9.22,4.12-9.22,9.21,0,0,0,.01,0,.02v-.02Z"/>
      <path id="brain-solid" class="cls-4" d="M82.73,21c7.75,0,14.03,6.28,14.03,14.03v100.24c0,7.75-6.28,14.04-14.03,14.04-7.18,0-13.2-5.42-13.96-12.56-1.33.35-2.71.53-4.08.53-8.86,0-16.04-7.19-16.04-16.05,0-1.8.31-3.59.9-5.3-10.35-3.93-15.55-15.51-11.63-25.86,1.84-4.85,5.49-8.79,10.17-11.01-2.25-2.83-3.47-6.34-3.46-9.95,0-7.55,5.26-14.07,12.63-15.69-.4-1.42-.61-2.89-.6-4.36,0-7.34,4.99-13.75,12.1-15.56.78-7.12,6.8-12.51,13.96-12.5ZM118.81,21c7.16,0,13.17,5.39,13.96,12.5,7.13,1.8,12.11,8.21,12.1,15.56,0,1.47-.2,2.94-.6,4.36,7.38,1.61,12.63,8.14,12.63,15.69.01,3.61-1.21,7.12-3.46,9.95,10.01,4.73,14.29,16.68,9.55,26.69-2.22,4.69-6.16,8.33-11.01,10.17,2.93,8.36-1.48,17.52-9.84,20.45-1.7.6-3.49.9-5.3.9-1.38,0-2.75-.17-4.08-.53-.82,7.71-7.73,13.3-15.43,12.48-7.14-.76-12.56-6.78-12.56-13.96V35.03c0-7.75,6.29-14.03,14.03-14.03Z"/>
    </g>
  </g>
</svg>