<svg xmlns="http://www.w3.org/2000/svg" width="145" height="116.004" viewBox="0 0 145 116.004">
  <path id="comments-solid" d="M47.118,79.753c26.033,0,47.127-17.854,47.127-39.876S73.151,0,47.118,0-.008,17.854-.008,39.876A35.874,35.874,0,0,0,8.964,63.3a21.03,21.03,0,0,1-3.217,5.6,25.985,25.985,0,0,1-3.013,3.24c-.408.363-.748.657-.974.838a2,2,0,0,1-.249.181l-.045.045h0A3.614,3.614,0,0,0,.173,77.238a3.676,3.676,0,0,0,3.444,2.515,40.943,40.943,0,0,0,14.07-2.832,48.227,48.227,0,0,0,5.71-2.583A53.563,53.563,0,0,0,47.118,79.753Zm54.377-39.876c0,25.444-22.453,44.612-49.052,46.9C57.948,103.633,76.21,116,97.87,116a53.563,53.563,0,0,0,23.722-5.415,49.95,49.95,0,0,0,5.71,2.583A40.943,40.943,0,0,0,141.371,116a3.635,3.635,0,0,0,2.13-6.571h0l-.045-.045c-.045-.045-.136-.091-.249-.181-.227-.181-.566-.453-.974-.838a25.987,25.987,0,0,1-3.013-3.24,21.393,21.393,0,0,1-3.217-5.6A35.784,35.784,0,0,0,144.974,76.1c0-21.026-19.236-38.268-43.637-39.763.091,1.156.136,2.334.136,3.512Z" transform="translate(0.011)" fill="#fff"/>
</svg>
