<?xml version="1.0" encoding="UTF-8"?>
<svg xmlns="http://www.w3.org/2000/svg" version="1.1" viewBox="0 0 200 200">
  <defs>
    <style>
      .cls-1, .cls-2, .cls-3, .cls-4 {
        display: none;
      }

      .cls-1, .cls-5, .cls-6 {
        isolation: isolate;
      }

      .cls-7, .cls-2, .cls-6 {
        fill: #fff;
      }

      .cls-6 {
        font-family: SegoeUI-Semibold, 'Segoe UI';
        font-size: 140px;
        font-weight: 600;
      }

      .cls-8 {
        fill: #bcbcbc;
      }

      .cls-4 {
        fill: #e52421;
        stroke: #1d1d1b;
        stroke-miterlimit: 10;
      }
    </style>
  </defs>
  <!-- Generator: Adobe Illustrator 28.7.1, SVG Export Plug-In . SVG Version: 1.2.0 Build 142)  -->
  <g>
    <g id="Ebene_1">
      <g id="Ebene_1-2" data-name="Ebene_1">
        <rect class="cls-4" x="-.32" y="-1.22" width="200" height="201.39"/>
        <g class="cls-3">
          <path id="question-solid" class="cls-7" d="M120.39,67.18c-.28-8.22,6.15-15.12,14.37-15.41l7.45-.26c8.22-.28,15.12,6.15,15.41,14.37l.03.84c.18,5.07-2.23,9.87-6.4,12.76l-9.6,6.65c-5.73,3.97-9.04,10.58-8.8,17.55v.33c.15,4.11,3.6,7.33,7.72,7.19,4.11-.14,7.33-3.59,7.19-7.7h0v-.33c-.07-1.9.83-3.7,2.39-4.79l9.6-6.65c8.33-5.78,13.15-15.4,12.81-25.54l-.03-.84c-.57-16.45-14.37-29.32-30.82-28.74h0l-7.45.26c-16.45.59-29.31,14.4-28.74,30.85.14,4.11,3.6,7.33,7.71,7.18,4.11-.14,7.33-3.59,7.18-7.7l-.02-.02ZM141.6,140.99c5.14-.18,9.16-4.49,8.98-9.63-.18-5.14-4.49-9.16-9.63-8.98s-9.16,4.49-8.98,9.63h0c.18,5.14,4.49,9.16,9.63,8.98Z"/>
          <g id="_5" class="cls-5">
            <g class="cls-5">
              <text class="cls-6" transform="translate(21.66 138.73)"><tspan x="0" y="0">5</tspan></text>
            </g>
          </g>
        </g>
        <path id="clipboard-regular" class="cls-2" d="M122.19,45.21h8.73c7.71,0,13.96,6.25,13.96,13.96v69.81c0,7.71-6.25,13.96-13.96,13.96h-55.85c-7.71,0-13.96-6.25-13.96-13.96V59.17c0-7.71,6.25-13.96,13.96-13.96h10.82c1.93-9.45,11.15-15.54,20.6-13.61,6.85,1.4,12.21,6.76,13.61,13.61h2.09ZM75.06,55.68c-1.93,0-3.48,1.57-3.49,3.49v69.81c0,1.93,1.57,3.48,3.49,3.49h55.85c1.93,0,3.48-1.57,3.49-3.49V59.17c0-1.93-1.57-3.48-3.49-3.49h-3.49v5.24c0,2.88-2.33,5.23-5.21,5.24h-38.43c-2.88,0-5.23-2.33-5.24-5.21v-5.27h-3.49,0ZM102.99,53.94c2.89,0,5.24-2.34,5.24-5.24s-2.34-5.24-5.24-5.24-5.24,2.34-5.24,5.24,2.34,5.24,5.24,5.24Z"/>
        <path id="bullseye-solid" class="cls-2" d="M143.35,89.53c0-23.35-18.93-42.27-42.27-42.27s-42.27,18.93-42.27,42.27,18.93,42.27,42.27,42.27,42.27-18.93,42.27-42.27ZM44.72,89.53c0-31.13,25.23-56.36,56.36-56.36s56.36,25.23,56.36,56.36-25.23,56.36-56.36,56.36-56.36-25.23-56.36-56.36ZM101.08,107.14c9.73,0,17.61-7.89,17.61-17.61s-7.89-17.61-17.61-17.61-17.61,7.89-17.61,17.61h0c0,9.73,7.89,17.61,17.61,17.61ZM101.08,57.82c17.51,0,31.7,14.19,31.7,31.7s-14.19,31.7-31.7,31.7-31.7-14.19-31.7-31.7,14.19-31.7,31.7-31.7h0ZM94.04,89.53c0-3.89,3.15-7.05,7.05-7.05s7.05,3.15,7.05,7.05-3.15,7.05-7.05,7.05h0c-3.89,0-7.04-3.15-7.04-7.05h-.01Z"/>
        <path id="binoculars-solid" class="cls-2" d="M70.57,33.78h7.57c4.18,0,7.57,3.38,7.57,7.56v7.59h-22.72v-7.57c0-4.18,3.38-7.57,7.56-7.57h.02ZM85.71,56.5v75.73c0,4.18-3.38,7.57-7.56,7.57h-30.31c-4.18,0-7.57-3.38-7.57-7.56v-14.01c0-8.19,2.22-16.23,6.43-23.26,3.24-5.39,5.33-11.41,6.11-17.65l1.77-14.2c.48-3.79,3.7-6.63,7.53-6.63h23.6ZM139.62,56.5c3.82,0,7.04,2.84,7.53,6.63l1.75,14.2c.78,6.25,2.86,12.26,6.11,17.65,4.21,7.03,6.43,15.07,6.43,23.26v13.99c0,4.18-3.38,7.57-7.56,7.57h-30.31c-4.18,0-7.57-3.38-7.57-7.56V56.5h23.62ZM116,41.36c0-4.18,3.38-7.57,7.56-7.57h7.59c4.18,0,7.57,3.38,7.57,7.56v7.59h-22.72v-7.57h0ZM108.43,56.5v37.86h-15.15v-37.86h15.15Z"/>
        <path id="person-rays-solid" class="cls-2" d="M91.91,43.38c0-5.45,4.42-9.87,9.87-9.87s9.87,4.42,9.87,9.87-4.42,9.87-9.87,9.87h0c-5.45,0-9.87-4.42-9.87-9.87ZM100.13,105.87v26.31c-.04,3.63-3.01,6.55-6.65,6.51-3.58-.04-6.47-2.93-6.51-6.51v-45.86l-5.88,9.76c-1.87,3.11-5.91,4.11-9.02,2.24s-4.11-5.91-2.24-9.02l11.98-19.94c3.57-5.94,9.99-9.58,16.92-9.58h6.1c6.93,0,13.35,3.64,16.92,9.58l11.98,19.94c1.87,3.11.87,7.15-2.24,9.02s-7.15.87-9.02-2.24l-5.9-9.76v45.86c0,3.63-2.94,6.58-6.58,6.58s-6.58-2.94-6.58-6.58v-26.31h-3.29.01ZM50.59,34.96c1.94-1.91,5.05-1.91,6.99,0l16.44,16.44c1.95,1.9,2,5.01.11,6.97-1.9,1.95-5.01,2-6.97.11-.04-.03-.07-.07-.11-.11l-16.47-16.42c-1.91-1.94-1.91-5.05,0-6.99h0ZM145.97,34.96c1.95-1.9,5.07-1.85,6.97.11,1.85,1.91,1.85,4.95,0,6.86l-16.44,16.44c-1.95,1.9-5.07,1.85-6.97-.11-1.85-1.91-1.85-4.95,0-6.86l16.44-16.44ZM50.59,137.32c-1.92-1.91-1.93-5.02-.02-6.95,0,0,0,0,.02-.02l16.44-16.45c1.9-1.95,5.01-2,6.97-.11,1.95,1.9,2,5.01.11,6.97-.03.04-.07.07-.11.11l-16.42,16.45c-1.91,1.92-5.02,1.93-6.95.02,0,0,0,0-.02-.02h-.02ZM145.97,137.32l-16.44-16.44c-1.9-1.95-1.85-5.07.11-6.97,1.91-1.85,4.95-1.85,6.86,0l16.44,16.44c1.9,1.95,1.85,5.07-.11,6.97-1.91,1.85-4.95,1.85-6.86,0h0Z"/>
        <path id="person-circle-question-solid" class="cls-2" d="M64.79,36.31c0-5.88,4.76-10.64,10.64-10.64s10.64,4.76,10.64,10.64-4.76,10.64-10.64,10.64-10.64-4.76-10.65-10.64h.01ZM73.66,103.71v28.38c0,3.92-3.18,7.1-7.1,7.1s-7.1-3.18-7.1-7.1v-49.47l-6.34,10.55c-2.02,3.36-6.38,4.44-9.74,2.42-3.36-2.02-4.44-6.38-2.42-9.74h0l12.93-21.51c3.85-6.41,10.77-10.33,18.25-10.33h6.59c7.47,0,14.4,3.92,18.25,10.33l9.95,16.56c-3.6,3.95-6.36,8.59-8.12,13.64-.43-.41-.79-.88-1.09-1.4l-6.34-10.53v49.47c0,3.92-3.18,7.1-7.1,7.1s-7.1-3.18-7.1-7.1h0v-28.38h-3.54.02ZM135.74,75.33c17.63,0,31.93,14.29,31.93,31.93s-14.29,31.93-31.93,31.93-31.93-14.29-31.93-31.93,14.29-31.93,31.93-31.93h0ZM135.74,128.54c2.94,0,5.32-2.38,5.32-5.32s-2.38-5.32-5.32-5.32-5.32,2.38-5.32,5.32,2.38,5.32,5.32,5.32h0ZM121.55,96.97v1.42c0,1.96,1.59,3.55,3.55,3.55s3.55-1.59,3.55-3.55v-1.42c0-1.18.95-2.13,2.13-2.13h8.98c1.7,0,3.09,1.37,3.09,3.07,0,1.15-.63,2.21-1.65,2.74l-7.1,3.72c-1.17.61-1.91,1.83-1.91,3.15v3.28c0,1.96,1.59,3.55,3.55,3.55s3.55-1.59,3.55-3.55v-1.13l5.21-2.73c4.97-2.62,6.88-8.77,4.26-13.75-1.76-3.34-5.23-5.43-9-5.43h-8.98c-5.09,0-9.22,4.12-9.22,9.21v.02-.02h-.01Z"/>
        <path id="brain-solid" class="cls-2" d="M82.73,21c7.75,0,14.03,6.28,14.03,14.03v100.24c0,7.75-6.28,14.04-14.03,14.04-7.18,0-13.2-5.42-13.96-12.56-1.33.35-2.71.53-4.08.53-8.86,0-16.04-7.19-16.04-16.05,0-1.8.31-3.59.9-5.3-10.35-3.93-15.55-15.51-11.63-25.86,1.84-4.85,5.49-8.79,10.17-11.01-2.25-2.83-3.47-6.34-3.46-9.95,0-7.55,5.26-14.07,12.63-15.69-.4-1.42-.61-2.89-.6-4.36,0-7.34,4.99-13.75,12.1-15.56.78-7.12,6.8-12.51,13.96-12.5h0ZM118.81,21c7.16,0,13.17,5.39,13.96,12.5,7.13,1.8,12.11,8.21,12.1,15.56,0,1.47-.2,2.94-.6,4.36,7.38,1.61,12.63,8.14,12.63,15.69,0,3.61-1.21,7.12-3.46,9.95,10.01,4.73,14.29,16.68,9.55,26.69-2.22,4.69-6.16,8.33-11.01,10.17,2.93,8.36-1.48,17.52-9.84,20.45-1.7.6-3.49.9-5.3.9-1.38,0-2.75-.17-4.08-.53-.82,7.71-7.73,13.3-15.43,12.48-7.14-.76-12.56-6.78-12.56-13.96V35.03c0-7.75,6.29-14.03,14.03-14.03h0Z"/>
        <path id="user-check-solid" class="cls-2" d="M49.21,53.41c0-16.92,13.71-30.63,30.63-30.63s30.63,13.71,30.63,30.63-13.71,30.63-30.63,30.63-30.63-13.71-30.63-30.63h0ZM26.23,138.19c0-23.56,19.08-42.66,42.64-42.67h21.9c23.56,0,42.66,19.08,42.67,42.64v.03c0,3.92-3.18,7.11-7.11,7.11H33.34c-3.92,0-7.11-3.18-7.11-7.11ZM175.79,65.14l-30.63,30.63c-2.23,2.24-5.85,2.25-8.09.02l-.02-.02-15.31-15.31c-2.24-2.24-2.24-5.87,0-8.11s5.87-2.24,8.11,0l11.25,11.25,26.56-26.58c2.24-2.24,5.87-2.24,8.11,0s2.24,5.87,0,8.11l.02.02h0Z"/>
        <path id="comment-dots-regular" class="cls-2" d="M80.53,119.43c-3.97-1.44-8.41-.8-11.81,1.7-3.28,2.33-6.78,4.34-10.43,6.01,1.62-4.19,2.63-8.6,2.99-13.08.26-3.43-.87-6.81-3.13-9.4-6.17-6.97-9.45-15.12-9.45-23.6,0-21.05,22.06-42.37,55.09-42.37s55.09,21.32,55.09,42.37-22.06,42.37-55.09,42.37c-7.93.03-15.8-1.33-23.26-4ZM42.95,129.73c-.42.71-.87,1.43-1.35,2.15l-.08.13-1.27,1.83c-.93,1.25-1.93,2.44-2.99,3.58-1.21,1.21-1.56,3.03-.89,4.61.66,1.59,2.2,2.62,3.92,2.62,1.35,0,2.7-.08,4.05-.21l.19-.03c1.16-.13,2.33-.29,3.5-.5.21-.03.43-.08.64-.13,4.56-.94,9.01-2.37,13.27-4.26,5.06-2.19,9.88-4.91,14.38-8.1,8.85,3.17,18.17,4.77,27.57,4.74,37.45,0,67.8-24.66,67.8-55.09s-30.43-55.08-67.88-55.08-67.8,24.66-67.8,55.09c0,11.94,4.69,22.99,12.63,32.02-.58,5.91-2.52,11.61-5.67,16.66h0l-.02-.03ZM74.12,89.53c4.68,0,8.47-3.79,8.47-8.47s-3.79-8.47-8.47-8.47-8.47,3.79-8.47,8.47h0c0,4.68,3.79,8.47,8.47,8.47ZM112.26,81.05c0-4.68-3.79-8.47-8.47-8.47s-8.47,3.79-8.47,8.47,3.79,8.47,8.47,8.47h0c4.68,0,8.47-3.79,8.48-8.47h-.01ZM133.45,89.53c4.68,0,8.47-3.79,8.47-8.47s-3.79-8.47-8.47-8.47-8.47,3.79-8.47,8.47h0c0,4.68,3.79,8.47,8.47,8.47h0Z"/>
        <path id="note-sticky-solid" class="cls-2" d="M62.4,27.22c-9.24,0-16.72,7.49-16.73,16.73v83.65c0,9.24,7.49,16.72,16.73,16.73h58.56v-29.28c0-6.93,5.62-12.55,12.55-12.55h29.28v-58.56c0-9.24-7.49-16.72-16.73-16.73H62.4ZM162.78,110.87h-29.28c-2.31,0-4.18,1.88-4.18,4.18v29.28l8.36-8.36,16.73-16.73,8.37-8.37Z"/>
        <path id="pencil-solid" class="cls-2" d="M139.87,80.3l2.66-2.66-7.99-7.99-14.63-14.63-7.99-7.99-2.66,2.66-5.32,5.32-46.93,46.93c-2.45,2.46-4.24,5.48-5.23,8.81l-8.34,28.36c-.59,1.98-.04,4.13,1.44,5.58,1.46,1.45,3.6,2,5.58,1.44l28.34-8.34c3.33-.98,6.35-2.78,8.81-5.23l46.92-46.92,5.32-5.35h.02ZM80.91,119.97l-2.14,5.35c-.94.72-2,1.27-3.13,1.63l-18.42,5.42,5.42-18.4c.33-1.14.88-2.21,1.63-3.13l5.35-2.14v7.54c0,2.08,1.69,3.76,3.77,3.77h7.54v-.03h-.02ZM128.66,30.3l-3.39,3.41-5.32,5.32-2.69,2.66,7.99,7.99,14.62,14.63,7.99,7.99,2.66-2.66,5.32-5.32,3.41-3.41c5.89-5.88,5.89-15.43,0-21.31h0l-9.25-9.29c-5.88-5.89-15.43-5.89-21.31,0h-.03ZM117.49,69.87l-33.92,33.92c-1.52,1.42-3.9,1.33-5.32-.19-1.35-1.45-1.35-3.69,0-5.13l33.92-33.92c1.52-1.42,3.9-1.33,5.32.19,1.35,1.45,1.35,3.69,0,5.13h0Z"/>
        <path id="microphone-solid" class="cls-2" d="M146.34,30.78c-11.27,0-20.41,9.14-20.41,20.41v34.02c0,11.27,9.14,20.41,20.41,20.41s20.41-9.14,20.41-20.41v-34.02c0-11.27-9.14-20.41-20.41-20.41ZM119.12,76.71c0-2.82-2.28-5.1-5.1-5.1s-5.1,2.28-5.1,5.1v8.51c0,18.7,13.8,34.53,32.32,37.08v7.14h-10.21c-2.82,0-5.1,2.28-5.1,5.1s2.28,5.1,5.1,5.1h30.62c2.82,0,5.1-2.28,5.1-5.1s-2.28-5.1-5.1-5.1h-10.21v-7.14c18.52-2.56,32.32-18.39,32.32-37.08v-8.51c0-2.82-2.28-5.1-5.1-5.1s-5.1,2.28-5.1,5.1v8.51c0,15.03-12.19,27.22-27.22,27.22s-27.22-12.19-27.22-27.22h0v-8.51h0Z"/>
        <g id="user-graduate-solid" class="cls-3">
          <g id="Gruppe_2">
            <path id="user-graduate-solid-2" class="cls-7" d="M69.17,31.97c.68-.13,1.37-.13,2.04,0l43.5,8.7c2.82.56,4.66,3.3,4.1,6.13-.41,2.07-2.03,3.69-4.1,4.1l-16.68,3.35v12.42c0,15.38-12.46,27.84-27.84,27.84s-27.84-12.46-27.84-27.84v-12.42l-10.44-2.09v14.16l3.42,17.05c.2,1.02-.06,2.08-.72,2.89s-1.65,1.28-2.7,1.28h-6.96c-1.05,0-2.04-.47-2.7-1.28-.67-.8-.93-1.87-.72-2.89l3.42-17.05v-15.62c-2.72-.95-4.14-3.93-3.19-6.64.61-1.74,2.09-3.03,3.9-3.38l43.5-8.7h0ZM45.81,103.14c2.31-.67,4.8.05,6.39,1.85l15.44,16.42c1.32,1.4,3.52,1.46,4.92.14.05-.05.1-.09.14-.14l15.44-16.42c1.59-1.8,4.08-2.52,6.39-1.85,14.52,4.66,24.36,18.16,24.36,33.41,0,3.69-2.99,6.68-6.68,6.68H28.14c-3.68,0-6.67-3-6.67-6.68,0-15.24,9.84-28.73,24.34-33.41Z"/>
          </g>
        </g>
      </g>
      <path id="table-solid" class="cls-2" d="M45.12,99.5v-27.19h45.31v27.19h-45.31ZM45.12,117.63h45.31v27.19h-45.31v-27.19ZM108.56,144.81v-27.19h45.31v27.19h-45.31ZM153.88,99.5h-45.31v-27.19h45.31v27.19ZM45.12,36.06c-10.01,0-18.12,8.12-18.12,18.12v90.62c0,10.01,8.12,18.12,18.12,18.12h108.75c10.01,0,18.12-8.12,18.12-18.12V54.19c0-10.01-8.12-18.12-18.12-18.12H45.12Z"/>
      <path id="square-check-regular" class="cls-2" d="M48.88,42.37c-2.86,0-5.17,2.32-5.18,5.18v103.57c0,2.86,2.32,5.17,5.18,5.18h103.57c2.86,0,5.17-2.32,5.18-5.18V47.55c0-2.86-2.32-5.17-5.18-5.18H48.88ZM28.17,47.55c.01-11.44,9.28-20.7,20.71-20.71h103.57c11.44.01,20.7,9.28,20.71,20.71v103.57c-.01,11.44-9.28,20.7-20.71,20.71H48.88c-11.44-.01-20.7-9.28-20.71-20.71V47.55ZM137.24,84.12l-41.43,41.43c-3.01,3.03-7.91,3.04-10.94.03-.01-.01-.02-.02-.03-.03l-20.71-20.72c-3-3.06-2.96-7.97.1-10.97,3.02-2.96,7.85-2.96,10.87,0l15.21,15.21,35.93-35.96c3.03-3.03,7.94-3.03,10.97,0s3.03,7.94,0,10.97l.03.03Z"/>
      <path id="clapperboard-solid" class="cls-2" d="M157.04,35.9h-24.38l-.28.28-35.97,35.97h26.08l.28-.28,35.91-35.88c-.55-.06-1.09-.09-1.64-.09ZM175.17,72.15v-18.12c0-4.12-1.4-8.11-3.96-11.33l-29.45,29.45h33.42ZM113.46,35.9h-26.08l-.28.28-36,35.97h26.09l.28-.28,35.97-35.97h.03ZM48.29,35.9c-10.01,0-18.12,8.12-18.12,18.12v18.12h1.73l.28-.28,35.97-35.97h-19.85ZM175.17,81.21H30.17v63.44c0,10.01,8.12,18.12,18.12,18.12h108.75c10.01,0,18.12-8.12,18.12-18.12v-63.44Z"/>
      <path id="image-portrait-solid" class="cls-2" d="M151.67,47.58c0-9.34-7.58-16.91-16.92-16.92h-67.67c-9.34,0-16.91,7.58-16.92,16.92v101.5c0,9.34,7.58,16.91,16.92,16.92h67.67c9.34,0,16.91-7.58,16.92-16.92V47.58ZM84,81.42c0-9.34,7.57-16.92,16.92-16.92s16.92,7.57,16.92,16.92-7.57,16.92-16.92,16.92-16.92-7.57-16.92-16.92ZM71.31,124.92c0-10.01,8.11-18.13,18.12-18.13h22.98c10.01,0,18.13,8.11,18.13,18.12h0c0,4.01-3.25,7.25-7.24,7.25h-44.7c-4.01.02-7.28-3.22-7.3-7.23,0,0,0,0,0,0Z"/>
      <path id="microphone-solid-2" data-name="microphone-solid" class="cls-2" d="M103.06,26.61c-14.64,0-26.51,11.87-26.51,26.51v44.19c0,14.64,11.87,26.51,26.51,26.51s26.51-11.87,26.51-26.51v-44.19c0-14.64-11.87-26.51-26.51-26.51ZM67.71,86.26c0-3.66-2.97-6.63-6.63-6.63s-6.63,2.97-6.63,6.63v11.05c0,24.28,17.92,44.84,41.98,48.16v9.28h-13.26c-3.66,0-6.63,2.97-6.63,6.63s2.97,6.63,6.63,6.63h39.77c3.66,0,6.63-2.97,6.63-6.63s-2.97-6.63-6.63-6.63h-13.26v-9.28c24.06-3.32,41.97-23.88,41.98-48.16v-11.05c0-3.66-2.97-6.63-6.63-6.63s-6.63,2.97-6.63,6.63v11.05c0,19.52-15.83,35.35-35.35,35.35s-35.35-15.83-35.35-35.35v-11.05Z"/>
      <path id="camera-solid" class="cls-2" d="M76.39,49.17l-2.94,8.2h-21.16c-10,0-18.12,7.54-18.12,16.81v67.25c0,9.27,8.13,16.81,18.12,16.81h108.75c10,0,18.12-7.54,18.12-16.81v-67.25c0-9.27-8.13-16.81-18.12-16.81h-21.15l-2.94-8.2c-2.06-5.29-7.21-8.74-12.89-8.61h-34.78c-5.68-.12-10.83,3.32-12.88,8.62ZM106.67,82.58c15.01,0,27.19,11.29,27.19,25.22s-12.17,25.22-27.19,25.22-27.19-11.29-27.19-25.22,12.17-25.22,27.19-25.22Z"/>
      <path id="question-solid-2" data-name="question-solid" class="cls-2" d="M124.28,71.43c-.28-8.22,6.15-15.12,14.37-15.41l7.45-.26c8.22-.28,15.12,6.15,15.41,14.37l.03.84c.18,5.07-2.23,9.87-6.4,12.76l-9.6,6.65c-5.73,3.97-9.04,10.58-8.8,17.55v.33c.15,4.11,3.6,7.33,7.72,7.19,4.11-.14,7.33-3.59,7.19-7.7h0v-.33c-.07-1.9.83-3.7,2.39-4.79l9.6-6.65c8.33-5.78,13.15-15.4,12.81-25.54l-.03-.84c-.57-16.45-14.37-29.32-30.82-28.74h0l-7.45.26c-16.45.59-29.31,14.4-28.74,30.85.14,4.11,3.6,7.33,7.71,7.18,4.11-.14,7.33-3.59,7.18-7.7l-.02-.02ZM145.5,145.24c5.14-.18,9.16-4.49,8.98-9.63-.18-5.14-4.49-9.16-9.63-8.98s-9.16,4.49-8.98,9.63h0c.18,5.14,4.49,9.16,9.63,8.98Z"/>
      <g id="_5-2" data-name="_5" class="cls-1">
        <g class="cls-5">
          <text class="cls-6" transform="translate(25.55 142.97)"><tspan x="0" y="0">5</tspan></text>
        </g>
      </g>
      <path id="scissors-solid" class="cls-2" d="M100.15,77.81l-9.05-9.05c5.13-13.22-1.43-28.1-14.65-33.23-13.22-5.13-28.1,1.43-33.23,14.65-5.13,13.22,1.43,28.1,14.65,33.23,2.96,1.15,6.11,1.74,9.28,1.74,3.17,0,6.32-.58,9.28-1.72l9.05,9.05-9.05,9.05c-13.22-5.13-28.1,1.43-33.23,14.65-5.13,13.22,1.43,28.1,14.65,33.23,13.22,5.13,28.1-1.43,33.23-14.65,1.15-2.96,1.74-6.1,1.74-9.28,0-3.17-.58-6.32-1.72-9.28l64.79-64.79c1.62-1.61,1.63-4.23.02-5.85,0,0-.01-.01-.02-.02-6.47-6.48-16.98-6.49-23.46-.01,0,0,0,0-.01.01l-32.27,32.27ZM105.34,112.32l27.09,27.09c6.47,6.48,16.98,6.49,23.46.01h.01c1.62-1.62,1.63-4.24.02-5.86,0,0-.01-.01-.02-.02l-35.89-35.89-14.66,14.67ZM56.15,59.47c0-6.08,4.93-11,11-11s11,4.93,11,11-4.93,11-11,11-11-4.93-11-11ZM67.16,114.48c6.08,0,11,4.93,11,11s-4.93,11-11,11-11-4.93-11-11,4.93-11,11-11h0Z"/>
      <g>
        <path id="map-solid" class="cls-8" d="M60.9,170.02V53.68l38.26-15.32c3.7-1.48,7.9.32,9.39,4.02.34.86.52,1.77.52,2.7v100.78c0,2.95-1.81,5.61-4.54,6.71l-43.62,17.43v.03Z"/>
        <path id="map-solid-2" class="cls-7" d="M81.63,155.74V39.4l38.26-15.32c3.7-1.48,7.9.32,9.39,4.02.34.86.52,1.77.52,2.7v100.78c0,2.95-1.81,5.61-4.54,6.71l-43.62,17.43v.03Z"/>
      </g>
    </g>
  </g>
</svg>